<svg width="40" height="40" viewBox="0 0 40 40" fill="none" xmlns="http://www.w3.org/2000/svg">
<path fill-rule="evenodd" clip-rule="evenodd" d="M10.7111 21.179C10.1024 22.5018 8.5977 23.0688 7.32993 22.4451C6.04982 21.8154 5.49599 20.2102 6.09292 18.8598C6.68984 17.5094 8.21148 16.9251 9.49159 17.5549C10.7571 18.1774 11.3128 19.7532 10.7487 21.0937C10.7421 21.1092 10.7354 21.1247 10.7286 21.1402C10.7229 21.1532 10.717 21.1662 10.7111 21.179ZM11.817 20.1872C11.8867 18.7669 11.1489 17.3778 9.85187 16.7398C8.14505 15.9002 6.1162 16.6792 5.3203 18.4797C4.5244 20.2803 5.26284 22.4206 6.96966 23.2602C8.26664 23.8982 9.74957 23.6016 10.7362 22.6323C10.9484 22.4238 11.1377 22.1842 11.2972 21.916L28.3425 30.3009C28.2503 30.6022 28.198 30.9092 28.183 31.2147C28.1133 32.6351 28.8511 34.0241 30.1481 34.6621C31.8549 35.5017 33.8838 34.7227 34.6797 32.9222C35.3761 31.3467 34.8978 29.5111 33.6239 28.5143C33.4419 28.3719 33.2437 28.2467 33.0303 28.1417C31.7334 27.5037 30.2504 27.8003 29.2638 28.7696C29.1144 28.9164 28.9763 29.0787 28.852 29.2555C28.7998 29.3298 28.75 29.4066 28.7028 29.4859L11.6575 21.101C11.7497 20.7997 11.802 20.4927 11.817 20.1872ZM29.2381 30.3401C28.6961 31.6737 29.253 33.2295 30.5084 33.8471C31.7885 34.4768 33.3102 33.8925 33.9071 32.5421C34.504 31.1917 33.9502 29.5865 32.6701 28.9568C32.5101 28.8781 32.3463 28.8183 32.181 28.7767C31.055 28.4929 29.8596 29.0489 29.3149 30.168C29.3122 30.1735 29.3096 30.179 29.3069 30.1845C29.2947 30.2099 29.2829 30.2357 29.2714 30.2617C29.2599 30.2878 29.2488 30.3139 29.2381 30.3401Z" fill="black"/>
<path fill-rule="evenodd" clip-rule="evenodd" d="M10.7538 18.9185C11.3094 20.2564 10.7532 21.8245 9.49159 22.4451C8.21148 23.0749 6.68984 22.4906 6.09292 21.1402C5.49599 19.7898 6.04982 18.1846 7.32993 17.5549C8.58868 16.9356 10.081 17.4902 10.698 18.7928C10.7084 18.8149 10.7186 18.8373 10.7286 18.8598C10.7372 18.8793 10.7456 18.8989 10.7538 18.9185ZM10.7362 17.3677C9.74957 16.3984 8.26664 16.1018 6.96966 16.7398C5.26284 17.5794 4.5244 19.7197 5.3203 21.5203C6.1162 23.3208 8.14505 24.0998 9.85187 23.2602C11.1489 22.6222 11.8867 21.2331 11.817 19.8128C11.802 19.5073 11.7497 19.2003 11.6575 18.899L28.7028 10.5141C28.8623 10.7823 29.0516 11.0219 29.2638 11.2304C30.2504 12.1997 31.7334 12.4963 33.0303 11.8583C34.7372 11.0187 35.4756 8.87839 34.6797 7.07783C33.8838 5.27728 31.8549 4.49828 30.1481 5.33789C28.8511 5.9759 28.1133 7.36494 28.183 8.78526C28.1936 9.00043 28.2226 9.21631 28.2711 9.43041C28.2915 9.52034 28.3153 9.60995 28.3425 9.69906L11.2972 18.084C11.1377 17.8158 10.9484 17.5762 10.7362 17.3677ZM29.2302 9.64026C29.2433 9.67303 29.257 9.70571 29.2714 9.73828C29.2854 9.76987 29.2998 9.80104 29.3148 9.83178L29.3152 9.83268C29.9401 11.1156 31.4202 11.6581 32.6701 11.0432C33.9502 10.4135 34.504 8.80831 33.9071 7.4579C33.3102 6.10748 31.7885 5.52323 30.5084 6.15294C29.2591 6.76748 28.7016 8.31109 29.2302 9.64026Z" fill="black"/>
</svg>
